<?xml version="1.0" encoding="UTF-8" standalone="no"?>
<!-- Uploaded to: SVG Repo, www.svgrepo.com, Generator: SVG Repo Mixer Tools -->

<svg
   fill="#000000"
   width="800px"
   height="800px"
   viewBox="0 0 24 24"
   version="1.1"
   id="svg3"
   xmlns="http://www.w3.org/2000/svg"
   xmlns:svg="http://www.w3.org/2000/svg">
  <defs
     id="defs3" />
  <g
     data-name="Layer 2"
     id="g3"
     style="stroke:#000000;stroke-opacity:1"
     transform="matrix(1.5477893,0,0,1.5477893,-6.5908609,-6.5517932)">
    <g
       data-name="arrowhead-left"
       id="g2"
       style="stroke:#000000;stroke-opacity:1">
      <path
         d="m 11.64,5.23 a 1,1 0 0 0 -1.41,0.13 l -5,6 a 1,1 0 0 0 0,1.27 l 4.83,6 A 1,1 0 0 0 10.84,19 1,1 0 0 0 11.62,17.37 L 7.29,12 11.77,6.63 a 1,1 0 0 0 -0.13,-1.4 z"
         id="path1"
         style="stroke:#000000;stroke-opacity:1" />
      <path
         d="M 14.29,12 18.77,6.63 A 1.0012492,1.0012492 0 0 0 17.23,5.35 l -5,6 a 1,1 0 0 0 0,1.27 l 4.83,6 a 1,1 0 0 0 0.78,0.37 1,1 0 0 0 0.78,-1.63 z"
         id="path2"
         style="stroke:#000000;stroke-width:0.99999;stroke-dasharray:none;stroke-opacity:1" />
    </g>
  </g>
</svg>
