<?xml version="1.0" encoding="UTF-8"?>
<svg id="Vrstva_1" xmlns="http://www.w3.org/2000/svg" version="1.1" viewBox="0 0 174.26 174.26">
  <!-- Generator: Adobe Illustrator 29.5.0, SVG Export Plug-In . SVG Version: 2.1.0 Build 137)  -->
  <path d="M24.26,122.05h0c0,5.35,2.92,10.28,7.62,12.84l43.7,23.85c4.37,2.38,9.65,2.38,14.02,0l43.7-23.85c4.7-2.56,7.62-7.49,7.62-12.84h0c0-11.11-11.89-18.16-21.64-12.84l-29.69,16.2c-4.37,2.38-9.65,2.38-14.02,0l-29.69-16.2c-9.75-5.32-21.64,1.74-21.64,12.84Z"/>
  <path d="M78.61,14.75L4.34,55.25c-5.79,3.16-5.79,11.47,0,14.63l74.26,40.51c2.49,1.36,5.49,1.36,7.98,0l58.69-32.02c5.55-3.03,12.32.99,12.32,7.32v35.21c0,4.6,3.73,8.33,8.33,8.33h0c4.6,0,8.33-3.73,8.33-8.33v-53.39c0-3.05-1.67-5.86-4.34-7.32L86.59,14.75c-2.49-1.36-5.49-1.36-7.98,0Z"/>
</svg>