<?xml version="1.0" encoding="UTF-8" standalone="no"?>
<!-- Uploaded to: SVG Repo, www.svgrepo.com, Generator: SVG Repo Mixer Tools -->

<svg
   width="800px"
   height="800px"
   viewBox="0 0 24 24"
   fill="none"
   version="1.1"
   id="svg1"
   sodipodi:docname="dashboard.svg"
   inkscape:version="1.3.2 (091e20e, 2023-11-25, custom)"
   xmlns:inkscape="http://www.inkscape.org/namespaces/inkscape"
   xmlns:sodipodi="http://sodipodi.sourceforge.net/DTD/sodipodi-0.dtd"
   xmlns="http://www.w3.org/2000/svg"
   xmlns:svg="http://www.w3.org/2000/svg">
  <defs
     id="defs1" />
  <sodipodi:namedview
     id="namedview1"
     pagecolor="#505050"
     bordercolor="#ffffff"
     borderopacity="1"
     inkscape:showpageshadow="0"
     inkscape:pageopacity="0"
     inkscape:pagecheckerboard="1"
     inkscape:deskcolor="#505050"
     inkscape:zoom="1.0049755"
     inkscape:cx="436.32904"
     inkscape:cy="336.82413"
     inkscape:window-width="2560"
     inkscape:window-height="1351"
     inkscape:window-x="2391"
     inkscape:window-y="-9"
     inkscape:window-maximized="1"
     inkscape:current-layer="svg1" />
  <path
     stroke="#000000"
     stroke-width="2.61362"
     d="M 1.2143519,2.5625581 A 1.3482059,1.3482059 0 0 1 2.562558,1.214352 H 7.955382 A 1.3482059,1.3482059 0 0 1 9.3035882,2.5625581 V 9.3035883 A 1.3482059,1.3482059 0 0 1 7.955382,10.651794 H 2.562558 A 1.3482059,1.3482059 0 0 1 1.2143519,9.3035883 Z m 13.4820601,0 A 1.3482059,1.3482059 0 0 1 16.044617,1.214352 h 5.392824 a 1.3482059,1.3482059 0 0 1 1.348207,1.3482061 V 5.2589703 A 1.3482059,1.3482059 0 0 1 21.437441,6.6071761 H 16.044617 A 1.3482059,1.3482059 0 0 1 14.696412,5.2589703 Z M 1.2143519,17.392822 A 1.3482059,1.3482059 0 0 1 2.562558,16.044616 h 5.392824 a 1.3482059,1.3482059 0 0 1 1.3482062,1.348206 v 4.044619 A 1.3482059,1.3482059 0 0 1 7.955382,22.785648 H 2.562558 A 1.3482059,1.3482059 0 0 1 1.2143519,21.437441 Z M 14.696412,13.348207 A 1.3482059,1.3482059 0 0 1 16.044617,12 h 5.392824 a 1.3482059,1.3482059 0 0 1 1.348207,1.348207 v 8.089234 a 1.3482059,1.3482059 0 0 1 -1.348207,1.348207 h -5.392824 a 1.3482059,1.3482059 0 0 1 -1.348204,-1.348207 z"
     id="path1"
     style="stroke:#ffffff;stroke-width:2.25;stroke-dasharray:none;stroke-opacity:1" />
</svg>
