<?xml version="1.0" encoding="UTF-8" standalone="no"?>
<svg
   stroke="currentColor"
   fill="currentColor"
   stroke-width="0"
   viewBox="0 0 1024 1024"
   height="200px"
   width="200px"
   version="1.1"
   id="svg1"
   xmlns="http://www.w3.org/2000/svg"
   xmlns:svg="http://www.w3.org/2000/svg">
  <defs
     id="defs1" />
  <path
     d="M 512.05641,20.300473 C 232.97149,20.18762 6.9273717,246.11888 6.9273717,524.9781 c 0,220.51434 141.4045383,407.96279 338.3326383,476.8031 26.5204,6.6582 22.4577,-12.18821 22.4577,-25.05342 v -87.46091 c -153.14122,17.94359 -159.34812,-83.3982 -169.61773,-100.32612 -20.76491,-35.43577 -69.85587,-44.464 -55.185,-61.39191 34.8715,-17.94359 70.42013,4.51411 111.61139,65.34176 29.79314,44.12543 87.91231,36.67715 117.36689,29.34173 6.43261,-26.52041 20.20065,-50.2195 39.15991,-68.6145 -158.671,-28.4389 -224.80273,-125.26658 -224.80273,-240.37642 0,-55.86212 18.395,-107.21013 54.50789,-148.62711 -23.02196,-68.27593 2.14421,-126.73367 5.52979,-135.42333 65.56746,-5.86835 133.73054,46.94675 139.03462,51.12231 37.24142,-10.0439 79.78692,-15.34798 127.41079,-15.34798 47.84957,0 90.50792,5.52978 128.08791,15.68653 12.75235,-9.70533 75.94992,-55.07215 136.89042,-49.54236 3.27273,8.68966 27.87463,65.79316 6.2069,133.16627 36.5643,41.52983 55.185,93.32926 55.185,149.30424 0,115.33553 -66.58313,212.27607 -225.70555,240.26355 a 143.88729,143.88729 0 0 1 42.99691,102.69604 v 126.95937 c 0.90282,10.15675 0,20.20066 16.92791,20.20066 199.86228,-67.37312 343.74957,-256.17582 343.74957,-478.60865 0,-278.97207 -226.15697,-504.790477 -505.01619,-504.790477 z"
     id="path1"
     style="stroke-width:0" />
</svg>
