<?xml version="1.0" encoding="UTF-8" standalone="no"?>
<svg
   stroke="currentColor"
   fill="currentColor"
   stroke-width="0"
   viewBox="0 0 24 24"
   height="200px"
   width="200px"
   version="1.1"
   id="svg1"
   sodipodi:docname="instagram.svg"
   inkscape:version="1.3.2 (091e20e, 2023-11-25, custom)"
   xmlns:inkscape="http://www.inkscape.org/namespaces/inkscape"
   xmlns:sodipodi="http://sodipodi.sourceforge.net/DTD/sodipodi-0.dtd"
   xmlns="http://www.w3.org/2000/svg"
   xmlns:svg="http://www.w3.org/2000/svg">
  <defs
     id="defs1" />
  <sodipodi:namedview
     id="namedview1"
     pagecolor="#505050"
     bordercolor="#ffffff"
     borderopacity="1"
     inkscape:showpageshadow="0"
     inkscape:pageopacity="0"
     inkscape:pagecheckerboard="1"
     inkscape:deskcolor="#505050"
     inkscape:zoom="2.8425"
     inkscape:cx="92.348285"
     inkscape:cy="133.15743"
     inkscape:window-width="2560"
     inkscape:window-height="1351"
     inkscape:window-x="2391"
     inkscape:window-y="-9"
     inkscape:window-maximized="1"
     inkscape:current-layer="svg1" />
  <path
     d="m 13.220485,0.12173403 c 1.336828,0.002213 2.01427,0.009286 2.599652,0.0267148 l 0.230566,0.007529 c 0.266321,0.00947 0.529078,0.021346 0.845883,0.036194 1.264012,0.0584079 2.126286,0.25836167 2.883552,0.55235943 0.782926,0.30192084 1.444213,0.70975214 2.104431,1.37001764 0.659268,0.6602535 1.067181,1.3234768 1.370089,2.1045012 0.292929,0.7562809 0.492966,1.6194702 0.552359,2.8835536 0.01413,0.3167692 0.02554,0.579526 0.03492,0.8458939 l 0.0075,0.2305536 c 0.01735,0.5853109 0.0253,1.2628597 0.02779,2.5997358 l 9.51e-4,0.885676 c 1.19e-4,0.108211 1.19e-4,0.219874 1.19e-4,0.335097 l -1.19e-4,0.335098 -7.13e-4,0.885795 c -0.0023,1.336828 -0.0092,2.01439 -0.02673,2.599653 l -0.0076,0.230565 c -0.0093,0.26644 -0.02126,0.529196 -0.03611,0.845883 -0.05844,1.26413 -0.259429,2.126286 -0.552358,2.883553 -0.301957,0.783043 -0.710821,1.44433 -1.37009,2.104549 -0.660217,0.659268 -1.324474,1.067063 -2.10443,1.36997 -0.757266,0.293047 -1.61954,0.492966 -2.883552,0.55236 -0.316805,0.01414 -0.579562,0.02566 -0.845883,0.03492 l -0.230566,0.0075 c -0.585382,0.01747 -1.262824,0.0253 -2.599652,0.02791 l -0.885795,9.5e-4 c -0.108211,0 -0.219875,0 -0.335098,0 h -0.335098 l -0.885794,-8.31e-4 c -1.3368291,-0.0022 -2.0143661,-0.0092 -2.5996888,-0.02673 l -0.2305418,-0.0075 C 7.6820897,23.833716 7.419333,23.821837 7.1025756,23.806989 5.8384803,23.748664 4.9772748,23.547676 4.219022,23.254629 3.4369999,22.952791 2.7747625,22.543927 2.1145089,21.884659 1.4542553,21.224441 1.0474099,20.560184 0.74450315,19.780111 0.4505054,19.022843 0.25153719,18.160687 0.19214372,16.896557 0.17803182,16.57987 0.16652142,16.317114 0.15719661,16.050674 l -0.007474,-0.230564 c -0.0173793,-0.585264 -0.0253017,-1.262826 -0.0278673,-2.599654 l -1.522e-4,-2.441666 c 0.002213,-1.3368761 0.009275,-2.0144251 0.0267029,-2.599736 l 0.00754,-0.2305535 C 0.16541664,7.6821326 0.17729533,7.4193758 0.19214372,7.1026065 0.25053937,5.8375253 0.4505054,4.9763199 0.74450315,4.2190529 1.0464121,3.4370426 1.4542553,2.7748053 2.1145089,2.1145517 2.7747625,1.4542862 3.4379976,1.0474408 4.219022,0.7445341 4.9762889,0.45053635 5.8374944,0.25156815 7.1025756,0.19217468 c 0.3167574,-0.0141 0.5795141,-0.0256105 0.8458939,-0.0349352 l 0.2305418,-0.007474 C 8.764334,0.13237429 9.441871,0.12445184 10.7787,0.12188623 Z M 11.999592,6.0602509 c -3.2819888,0 -5.939372,2.6602697 -5.939372,5.9393121 0,3.281966 2.6602697,5.93935 5.939372,5.93935 3.281966,0 5.939349,-2.660235 5.939349,-5.93935 0,-3.2819289 -2.660353,-5.9393121 -5.939349,-5.9393121 z m 0,2.3757393 c 1.968182,0 3.563609,1.5949168 3.563609,3.5635728 0,1.968182 -1.594952,3.56361 -3.563609,3.56361 -1.968181,0 -3.5636327,-1.594834 -3.5636327,-3.56361 0,-1.96818 1.5948577,-3.5635728 3.5636327,-3.5635728 z m 6.236316,-4.1575438 c -0.818799,0 -1.484837,0.6651001 -1.484837,1.4838274 0,0.8187392 0.665088,1.4848608 1.484837,1.4848608 0.81868,0 1.484837,-0.6650881 1.484837,-1.4848608 0,-0.8187273 -0.667226,-1.484849 -1.484837,-1.4838274 z"
     id="path1"
     style="stroke-width:0" />
</svg>
