<?xml version="1.0" encoding="UTF-8" standalone="no"?>
<svg
   stroke="currentColor"
   fill="currentColor"
   stroke-width="0"
   viewBox="0 0 512 512"
   height="200px"
   width="200px"
   version="1.1"
   id="svg1"
   xmlns="http://www.w3.org/2000/svg"
   xmlns:svg="http://www.w3.org/2000/svg">
  <defs
     id="defs1" />
  <path
     d="M 319.07827,66.765174 C 319.07827,32.06896 290.6962,3.6868951 256,3.6868951 c -34.69621,0 -63.07828,28.3820649 -63.07828,63.0782789 0,34.696196 28.38207,63.078266 63.07828,63.078266 34.6962,0 63.07827,-28.38207 63.07827,-63.078266 z m 0,378.469646 c 0,-34.6962 -28.38207,-63.07828 -63.07827,-63.07828 -34.69621,0 -63.07828,28.38208 -63.07828,63.07828 0,34.69621 28.38207,63.07828 63.07828,63.07828 34.6962,0 63.07827,-28.38207 63.07827,-63.07828 z m 0,-189.23482 c 0,-34.69621 -28.38207,-63.07828 -63.07827,-63.07828 -34.69621,0 -63.07828,28.38207 -63.07828,63.07828 0,34.6962 28.38207,63.07827 63.07828,63.07827 34.6962,0 63.07827,-28.38207 63.07827,-63.07827 z"
     id="path1"
     style="stroke-width:0" />
</svg>
