<?xml version="1.0" encoding="UTF-8" standalone="no"?>
<!-- Uploaded to: SVG Repo, www.svgrepo.com, Transformed by: SVG Repo Mixer Tools -->

<svg
   fill="#ffffff"
   width="800px"
   height="800px"
   viewBox="0 0 24 24"
   stroke="#ffffff"
   version="1.1"
   id="svg1"
   sodipodi:docname="organization.svg"
   inkscape:version="1.3.2 (091e20e, 2023-11-25, custom)"
   xmlns:inkscape="http://www.inkscape.org/namespaces/inkscape"
   xmlns:sodipodi="http://sodipodi.sourceforge.net/DTD/sodipodi-0.dtd"
   xmlns="http://www.w3.org/2000/svg"
   xmlns:svg="http://www.w3.org/2000/svg">
  <defs
     id="defs1" />
  <sodipodi:namedview
     id="namedview1"
     pagecolor="#505050"
     bordercolor="#ffffff"
     borderopacity="1"
     inkscape:showpageshadow="0"
     inkscape:pageopacity="0"
     inkscape:pagecheckerboard="1"
     inkscape:deskcolor="#505050"
     inkscape:zoom="1.0049755"
     inkscape:cx="283.09148"
     inkscape:cy="299.01226"
     inkscape:window-width="2560"
     inkscape:window-height="1351"
     inkscape:window-x="2391"
     inkscape:window-y="-9"
     inkscape:window-maximized="1"
     inkscape:current-layer="svg1" />
  <g
     id="SVGRepo_bgCarrier"
     stroke-width="0" />
  <g
     id="SVGRepo_tracerCarrier"
     stroke-linecap="round"
     stroke-linejoin="round" />
  <g
     id="SVGRepo_iconCarrier"
     style="stroke-width:0;stroke-dasharray:none"
     transform="matrix(1.058973,0,0,1.0481179,-0.70767594,-0.5774148)">
    <path
       d="M 22,1 H 18 A 1,1 0 0 0 17,2 V 9 H 15 V 7 A 1,1 0 0 0 13.553,6.105 L 9,8.382 V 7 A 1,1 0 0 0 7.553,6.105 l -6,3 A 1,1 0 0 0 1,10 v 12 a 1,1 0 0 0 1,1 h 20 a 1,1 0 0 0 1,-1 V 2 A 1,1 0 0 0 22,1 Z M 21,3 V 5 H 19 V 3 Z M 3,21 V 10.618 l 4,-2 V 10 a 1,1 0 0 0 1.447,0.895 L 13,8.618 V 10 a 1,1 0 0 0 1,1 h 4 a 1,1 0 0 0 1,-1 V 7 h 2 v 14 z m 2,-8 h 3 v 2 H 5 Z m 5,0 h 4 v 2 h -4 z m 6,0 h 3 v 2 H 16 Z M 5,17 h 3 v 2 H 5 Z m 5,0 h 4 v 2 h -4 z m 6,0 h 3 v 2 h -3 z"
       id="path1"
       style="stroke-width:0;stroke-dasharray:none" />
  </g>
</svg>
