<?xml version="1.0" encoding="UTF-8" standalone="no"?>
<!-- Uploaded to: SVG Repo, www.svgrepo.com, Transformed by: SVG Repo Mixer Tools -->

<svg
   width="800px"
   height="800px"
   viewBox="0 0 512 512"
   version="1.1"
   xml:space="preserve"
   fill="#ffffff"
   stroke="#ffffff"
   id="svg2"
   sodipodi:docname="account.svg"
   inkscape:version="1.3.2 (091e20e, 2023-11-25, custom)"
   xmlns:inkscape="http://www.inkscape.org/namespaces/inkscape"
   xmlns:sodipodi="http://sodipodi.sourceforge.net/DTD/sodipodi-0.dtd"
   xmlns="http://www.w3.org/2000/svg"
   xmlns:svg="http://www.w3.org/2000/svg"><defs
   id="defs2" /><sodipodi:namedview
   id="namedview2"
   pagecolor="#505050"
   bordercolor="#ffffff"
   borderopacity="1"
   inkscape:showpageshadow="0"
   inkscape:pageopacity="0"
   inkscape:pagecheckerboard="1"
   inkscape:deskcolor="#505050"
   inkscape:zoom="1.0049755"
   inkscape:cx="376.62609"
   inkscape:cy="383.59144"
   inkscape:window-width="2560"
   inkscape:window-height="1351"
   inkscape:window-x="2391"
   inkscape:window-y="-9"
   inkscape:window-maximized="1"
   inkscape:current-layer="SVGRepo_iconCarrier" />





<g
   id="SVGRepo_iconCarrier"
   transform="matrix(1.0864278,0,0,1.0864278,-22.123258,-22.125517)"
   style="stroke-width:7.06904;stroke-dasharray:none"> <style
   type="text/css"
   id="style1"> .st0{fill:#ffffff;} </style>  <g
   id="Layer_2"
   style="stroke-width:7.06904;stroke-dasharray:none"> <g
   id="g2"
   style="stroke-width:7.06904;stroke-dasharray:none"> <path
   class="st0"
   d="m 256,240.9 c 27.17,0 53.02,-13.76 72.79,-38.74 17.74,-22.42 27.92,-50.59 27.92,-77.28 0,-27.1 -10.74,-52.05 -30.25,-70.28 C 307.74,37.13 282.72,27.5 256,27.5 c -26.72,0 -51.74,9.63 -70.45,27.1 -19.51,18.23 -30.25,43.18 -30.25,70.28 0,26.7 10.17,54.87 27.92,77.28 19.76,24.99 45.61,38.74 72.78,38.74 z M 207.4,77.99 C 220.16,66.07 237.42,59.5 256,59.5 c 18.58,0 35.84,6.57 48.6,18.49 12.96,12.11 20.1,28.76 20.1,46.9 0,38.06 -30.65,84.02 -68.7,84.02 -38.05,0 -68.7,-45.96 -68.7,-84.02 0,-18.14 7.14,-34.8 20.1,-46.9 z"
   id="path1"
   style="stroke-width:7.06904;stroke-dasharray:none" /> <path
   class="st0"
   d="m 83.920613,311.74225 c -11.70042,20.49237 -15.454025,45.04729 -11.486251,75.08215 4.351025,32.88962 10.111061,60.8982 17.595721,85.62281 2.10788,6.97719 9.25439,11.83827 17.415377,11.83827 h 297.12089 c 8.16099,0 15.30749,-4.86108 17.42664,-11.83827 7.48467,-24.76454 13.23343,-52.77311 17.56191,-85.61282 3.97905,-30.02488 0.22544,-54.5798 -11.47498,-75.08216 -11.95968,-20.9715 -33.7599,-39.58732 -61.37651,-52.43374 -6.06438,-2.81483 -12.44438,-5.3901 -18.94837,-7.63598 -5.21898,-1.80668 -11.09173,-1.35751 -15.88237,1.1978 -23.49102,12.55695 -49.72117,19.19476 -75.8724,19.19476 -26.13997,0 -52.38138,-6.63781 -75.87241,-19.19476 -4.79064,-2.56529 -10.66339,-3.00448 -15.88237,-1.1978 -6.50399,2.25586 -12.88399,4.82115 -18.94837,7.64596 -27.62788,12.83644 -49.416817,31.45226 -61.376507,52.41378 z m 78.126827,-24.13569 c 2.45731,-1.13791 4.98226,-2.2359 7.55229,-3.27399 27.00792,12.89632 56.68732,19.68386 86.38926,19.68386 29.70195,0 59.38135,-6.77756 86.38926,-19.68386 2.57004,1.03809 5.09499,2.12609 7.5523,3.26401 21.02244,9.77206 37.33315,23.45693 45.94502,38.54922 8.5217,14.93259 11.01283,33.02936 7.84537,56.94546 0,0 0,0.01 0,0.01 -3.44926,26.10208 -7.78901,48.89024 -13.22215,69.23289 H 121.50175 c -5.42188,-20.3127 -9.78417,-43.10087 -13.23343,-69.23289 -3.16746,-23.93606 -0.66505,-42.03283 7.85664,-56.96542 8.58933,-15.06235 24.91131,-28.7572 45.92248,-38.52926 z"
   id="path2"
   style="stroke-width:7.49832;stroke-dasharray:none" /> </g> </g> </g>

</svg>
