<?xml version="1.0" encoding="UTF-8" standalone="no"?>
<svg
   stroke="currentColor"
   fill="currentColor"
   stroke-width="0"
   viewBox="0 0 512 512"
   height="200px"
   width="200px"
   version="1.1"
   id="svg1"
   xmlns="http://www.w3.org/2000/svg"
   xmlns:svg="http://www.w3.org/2000/svg">
  <defs
     id="defs1" />
  <path
     d="M 315.77009,255.99999 495.93892,75.831159 c 16.37899,-16.378987 16.37899,-43.325059 0,-59.704044 -16.37899,-16.37898656 -43.32506,-16.37898656 -59.70404,0 L 256.06605,196.29595 75.897204,16.127115 c -16.37898,-16.37898656 -43.325058,-16.37898656 -59.704039,0 -8.1894904,8.189491 -12.4163323,19.020757 -12.4163323,29.852021 0,10.831266 4.2268419,21.662529 12.4163323,29.852023 L 196.36199,255.99999 16.193165,436.16883 c -8.1894904,8.18949 -12.4163323,19.02076 -12.4163323,29.85204 0,10.83126 4.2268419,21.66252 12.4163323,29.85201 16.378981,16.37899 43.325059,16.37899 59.704039,0 L 256.06605,315.70404 436.23488,495.87288 c 16.37898,16.37899 43.32505,16.37899 59.70404,0 16.37899,-16.37898 16.37899,-43.32507 0,-59.70405 z"
     id="path1"
     style="stroke-width:0" />
</svg>
