<?xml version="1.0" encoding="UTF-8" standalone="no"?>
<svg
   stroke="currentColor"
   fill="currentColor"
   stroke-width="0"
   viewBox="0 0 640 512"
   height="200px"
   width="200px"
   version="1.1"
   id="svg1"
   sodipodi:docname="discord.svg"
   inkscape:version="1.3.2 (091e20e, 2023-11-25, custom)"
   xmlns:inkscape="http://www.inkscape.org/namespaces/inkscape"
   xmlns:sodipodi="http://sodipodi.sourceforge.net/DTD/sodipodi-0.dtd"
   xmlns="http://www.w3.org/2000/svg"
   xmlns:svg="http://www.w3.org/2000/svg">
  <defs
     id="defs1" />
  <sodipodi:namedview
     id="namedview1"
     pagecolor="#505050"
     bordercolor="#ffffff"
     borderopacity="1"
     inkscape:showpageshadow="0"
     inkscape:pageopacity="0"
     inkscape:pagecheckerboard="1"
     inkscape:deskcolor="#505050"
     inkscape:zoom="2.8425"
     inkscape:cx="37.818821"
     inkscape:cy="75.461741"
     inkscape:window-width="2560"
     inkscape:window-height="1351"
     inkscape:window-x="2391"
     inkscape:window-y="-9"
     inkscape:window-maximized="1"
     inkscape:current-layer="svg1" />
  <path
     d="m 540.46482,55.335258 a 1.6168492,1.6168492 0 0 0 -0.82352,-0.75453 522.8513,522.8513 0 0 0 -129.00947,-39.996536 1.9574654,1.9574654 0 0 0 -2.07281,0.980889 363.74902,363.74902 0 0 0 -16.06069,32.983722 482.73511,482.73511 0 0 0 -144.89771,0 A 333.65408,333.65408 0 0 0 231.2866,15.565081 2.0372301,2.0372301 0 0 0 229.21273,14.584192 521.36811,521.36811 0 0 0 100.2011,54.581806 1.8453639,1.8453639 0 0 0 99.351713,55.310467 C 17.184516,178.01639 -5.3241811,297.70527 5.7178209,415.91203 a 2.1730453,2.1730453 0 0 0 0.8245931,1.48211 525.65491,525.65491 0 0 0 158.262586,79.96829 2.048009,2.048009 0 0 0 2.22371,-0.72866 375.3246,375.3246 0 0 0 32.37687,-52.64676 2.004893,2.004893 0 0 0 -1.09838,-2.78961 346.1922,346.1922 0 0 1 -49.4411,-23.55534 2.0318405,2.0318405 0 0 1 -0.19941,-3.36951 c 3.32208,-2.48887 6.64632,-5.07799 9.81859,-7.69297 a 1.960699,1.960699 0 0 1 2.048,-0.27594 c 103.72519,47.33811 216.02183,47.33811 318.5193,0 a 1.9531538,1.9531538 0 0 1 2.07387,0.25115 c 3.17334,2.61499 6.4965,5.22889 9.84337,7.71776 a 2.0307626,2.0307626 0 0 1 -0.17461,3.36951 324.88644,324.88644 0 0 1 -49.46481,23.53054 2.0210616,2.0210616 0 0 0 -1.0779,2.81441 421.51797,421.51797 0 0 0 32.35208,52.61765 2.0092046,2.0092046 0 0 0 2.22371,0.75454 523.91087,523.91087 0 0 0 158.51805,-79.96506 2.0286068,2.0286068 0 0 0 0.8246,-1.45732 C 647.39028,279.2775 612.03949,160.56951 540.46482,55.335258 Z M 214.89607,343.93637 c -31.2289,0 -56.96053,-28.65811 -56.96053,-63.85368 0,-35.19557 25.23255,-63.85584 56.96053,-63.85584 31.97588,0 57.4585,28.90926 56.95943,63.85368 0,35.19773 -25.23362,63.85584 -56.95943,63.85584 z m 210.59999,0 c -31.22782,0 -56.95943,-28.65811 -56.95943,-63.85368 0,-35.19557 25.23253,-63.85584 56.95943,-63.85584 31.97805,0 57.45959,28.90926 56.96053,63.85368 0,35.19773 -24.98248,63.85584 -56.96053,63.85584 z"
     id="path1"
     style="stroke-width:0" />
</svg>
