<?xml version="1.0" encoding="UTF-8" standalone="no"?>
<svg
   stroke="currentColor"
   fill="currentColor"
   stroke-width="0"
   viewBox="0 0 24 24"
   height="200px"
   width="200px"
   version="1.1"
   id="svg1"
   xmlns="http://www.w3.org/2000/svg"
   xmlns:svg="http://www.w3.org/2000/svg">
  <defs
     id="defs1" />
  <path
     d="m 13.215978,0.68377954 a 1.880379,1.880379 0 0 0 -2.431957,0 L 1.3821266,8.6603471 A 1.880379,1.880379 0 0 0 0.71772602,10.09445 v 11.787469 a 1.880379,1.880379 0 0 0 1.88037908,1.880379 h 5.9545333 a 0.94018949,0.94018949 0 0 0 0.9401895,-0.94019 v -7.834913 h 5.0143441 v 7.834913 c 0,0.518985 0.421204,0.94019 0.94019,0.94019 h 5.954533 a 1.880379,1.880379 0 0 0 1.880379,-1.880379 V 10.09445 a 1.880379,1.880379 0 0 0 -0.6644,-1.4341029 z"
     id="path1"
     style="stroke-width:0" />
</svg>
