<?xml version="1.0" encoding="UTF-8" standalone="no"?>
<svg
   viewBox="0 0 512 512"
   version="1.1"
   id="svg1"
   sodipodi:docname="login.svg"
   inkscape:version="1.3.2 (091e20e, 2023-11-25, custom)"
   xmlns:inkscape="http://www.inkscape.org/namespaces/inkscape"
   xmlns:sodipodi="http://sodipodi.sourceforge.net/DTD/sodipodi-0.dtd"
   xmlns="http://www.w3.org/2000/svg"
   xmlns:svg="http://www.w3.org/2000/svg">
  <defs
     id="defs1" />
  <sodipodi:namedview
     id="namedview1"
     pagecolor="#505050"
     bordercolor="#ffffff"
     borderopacity="1"
     inkscape:showpageshadow="0"
     inkscape:pageopacity="0"
     inkscape:pagecheckerboard="1"
     inkscape:deskcolor="#505050"
     inkscape:zoom="1.5702742"
     inkscape:cx="511.69406"
     inkscape:cy="109.21659"
     inkscape:window-width="2560"
     inkscape:window-height="1351"
     inkscape:window-x="2391"
     inkscape:window-y="-9"
     inkscape:window-maximized="1"
     inkscape:current-layer="svg1" />
  <path
     d="M 435.37966,23.861622 H 224.34477 a 73.941348,73.941348 0 0 0 -73.86221,73.86221 V 234.89651 h 202.29012 l -69.48323,-69.49643 a 21.103488,21.103488 0 0 1 29.83506,-29.83505 l 105.51744,105.51744 a 21.103488,21.103488 0 0 1 0,29.83506 L 313.12451,376.43497 a 21.103488,21.103488 0 0 1 -29.83506,-29.83505 l 69.48323,-69.49643 H 150.48256 v 137.17267 c 0,42.27293 44.56793,73.86222 84.41395,73.86222 h 200.48315 a 73.941348,73.941348 0 0 0 73.8622,-73.86222 V 97.723832 a 73.941348,73.941348 0 0 0 -73.8622,-73.86221 z M 23.861627,234.89651 a 21.10349,21.10349 0 0 0 0,42.20698 H 150.48256 v -42.20698 z"
     id="path1"
     style="stroke-width:1.31896" />
</svg>
