<?xml version="1.0" encoding="UTF-8" standalone="no"?>
<svg
   stroke="currentColor"
   fill="currentColor"
   stroke-width="0"
   viewBox="0 0 448 512"
   height="200px"
   width="200px"
   version="1.1"
   id="svg1"
   xmlns="http://www.w3.org/2000/svg"
   xmlns:svg="http://www.w3.org/2000/svg">
  <defs
     id="defs1" />
  <path
     d="M 421.93643,4.0809165 H 26.063575 c -29.8029279,0 -53.982662,24.1797335 -53.982662,53.9826615 V 453.93642 c 0,29.80293 24.1797341,53.98266 53.982662,53.98266 H 421.93643 c 29.80293,0 53.98266,-24.17973 53.98266,-53.98266 V 58.063578 c 0,-29.802928 -24.17973,-53.9826615 -53.98266,-53.9826615 z M 415.18859,453.93642 H 32.811407 c -3.711308,0 -6.747832,-3.03652 -6.747832,-6.74784 V 64.811411 c 0,-3.711308 3.036524,-6.747833 6.747832,-6.747833 H 415.18859 c 3.71132,0 6.74784,3.036525 6.74784,6.747833 V 447.18858 c 0,3.71132 -3.03652,6.74784 -6.74784,6.74784 z"
     id="path1"
     style="stroke-width:0" />
</svg>
