<?xml version="1.0" encoding="UTF-8" standalone="no"?>
<svg
   stroke="currentColor"
   fill="currentColor"
   stroke-width="0"
   version="1.2"
   viewBox="0 0 24 24"
   height="200px"
   width="200px"
   id="svg1"
   xmlns="http://www.w3.org/2000/svg"
   xmlns:svg="http://www.w3.org/2000/svg">
  <defs
     id="defs1" />
  <path
     d="M 20.798576,9.0671408 H 14.932859 V 3.2014237 c 0,-1.6189379 -1.313921,-2.93285851 -2.932859,-2.93285851 -1.618938,0 -2.9328584,1.31392061 -2.9328584,2.93285851 L 9.1712583,9.0671408 H 3.2014246 c -1.6189378,0 -2.93285849,1.3139202 -2.93285849,2.9328592 0,1.618938 1.31392069,2.932858 2.93285849,2.932858 l 5.9698336,-0.104115 -0.1041167,5.969833 c 0,1.618939 1.3139205,2.932859 2.9328585,2.932859 1.618938,0 2.932859,-1.31392 2.932859,-2.932859 v -5.969833 l 5.865717,0.104115 c 1.618938,0 2.932858,-1.31392 2.932858,-2.932858 0,-1.618939 -1.31392,-2.9328592 -2.932858,-2.9328592 z"
     id="path1"
     style="stroke-width:0" />
</svg>
