<?xml version="1.0" encoding="UTF-8" standalone="no"?>
<svg
   stroke="currentColor"
   fill="currentColor"
   stroke-width="0"
   viewBox="0 0 24 24"
   height="200px"
   width="200px"
   version="1.1"
   id="svg2"
   sodipodi:docname="reset_password.svg"
   inkscape:version="1.3.2 (091e20e, 2023-11-25, custom)"
   xmlns:inkscape="http://www.inkscape.org/namespaces/inkscape"
   xmlns:sodipodi="http://sodipodi.sourceforge.net/DTD/sodipodi-0.dtd"
   xmlns="http://www.w3.org/2000/svg"
   xmlns:svg="http://www.w3.org/2000/svg">
  <defs
     id="defs2" />
  <sodipodi:namedview
     id="namedview2"
     pagecolor="#505050"
     bordercolor="#ffffff"
     borderopacity="1"
     inkscape:showpageshadow="0"
     inkscape:pageopacity="0"
     inkscape:pagecheckerboard="1"
     inkscape:deskcolor="#505050"
     inkscape:zoom="2.8425"
     inkscape:cx="39.226033"
     inkscape:cy="84.960422"
     inkscape:window-width="2560"
     inkscape:window-height="1351"
     inkscape:window-x="2391"
     inkscape:window-y="-9"
     inkscape:window-maximized="1"
     inkscape:current-layer="svg2" />
  <path
     fill="none"
     d="M0 0h24v24H0z"
     id="path1" />
  <path
     d="M 13.702484,1.7968338 A 10.203167,10.203167 0 0 0 3.4993167,11.999999 H 0.09826129 L 4.6330018,16.53474 9.1677423,11.999999 H 5.766687 c 0,-4.3760236 3.5597712,-7.935795 7.935797,-7.935795 4.376024,0 7.935795,3.5597714 7.935795,7.935795 0,4.376026 -3.559771,7.935796 -7.935795,7.935796 -2.154003,0 -4.1039415,-0.8616 -5.5323847,-2.256033 l -1.6098328,1.598497 a 10.18276,10.18276 0 0 0 7.1422175,2.924907 10.203167,10.203167 0 0 0 0,-20.4063322 z m 2.267369,9.0694802 V 9.7326293 c 0,-1.2470532 -1.020316,-2.2673699 -2.267369,-2.2673699 -1.247054,0 -2.267371,1.0203167 -2.267371,2.2673699 v 1.1336847 c -0.623527,0 -1.133685,0.510159 -1.133685,1.133685 v 3.401057 c 0,0.623526 0.510158,1.133684 1.133685,1.133684 h 4.53474 c 0.623527,0 1.133686,-0.510158 1.133686,-1.133684 v -3.401057 c 0,-0.623526 -0.510159,-1.133685 -1.133686,-1.133685 z m -1.133685,0 h -2.26737 V 9.7326293 c 0,-0.6235264 0.510159,-1.1336847 1.133686,-1.1336847 0.623527,0 1.133684,0.5101583 1.133684,1.1336847 z"
     id="path2"
     style="stroke-width:0" />
</svg>
